#!OML:ASF H:\Terrain\Patient Classification 1\Terrain2\Thursday\justin.ASF
:FULLY-SPECIFIED
:DEGREES
2361
root 28.9311 18.8057 10.5414 721.509 86.6113 367.598
lowerback 9.07095 0.884862 -1.55267
upperback 2.17656 1.15805 1.84005
thorax -2.89436 0.61648 2.64661
lowerneck -14.0121 -0.282788 -8.68044
upperneck 31.2007 2.16643 2.41647
head 12.596 0.575544 2.82261
rclavicle 4.34841e-015 1.74931e-014
rhumerus -41.034 -3.98353 -77.8511
rradius 42.8741
rwrist -15.678
rhand -21.2278 13.8847
rfingers 7.12502
rthumb 5.15439 -16.0326
lclavicle 4.34841e-015 1.74931e-014
lhumerus -41.4579 0.0173798 84.7663
lradius 39.9808
lwrist 3.52742
lhand -13.654 16.6801
lfingers 7.12502
lthumb 12.4628 46.2885
rfemur -28.6937 -18.5274 12.3008
rtibia 109.299
rfoot -21.9804 5.12277
rtoes 6.68364
lfemur 5.70387 1.65163 -23.8363
ltibia 8.019
lfoot 9.24434 -4.67453
ltoes -0.533771
2362
root 28.9582 18.8023 10.5632 728.865 86.8612 374.947
lowerback 9.19385 0.806737 -2.15628
upperback 2.19655 0.996958 1.84628
thorax -2.94171 0.540685 3.01217
lowerneck -14.224 -0.250183 -8.9204
upperneck 31.2552 2.2835 2.47862
head 12.6535 0.60352 2.90923
rclavicle -1.78906e-015 5.96354e-015
rhumerus -41.1317 -4.13044 -77.6287
rradius 43.7774
rwrist -15.4831
rhand -21.0585 13.9397
rfingers 7.12502
rthumb 5.3179 -15.9735
lclavicle -1.78906e-015 5.96354e-015
lhumerus -41.4295 -0.325507 84.9179
lradius 40.3163
lwrist 3.82928
lhand -13.2134 16.3326
lfingers 7.12502
lthumb 12.8875 45.9147
rfemur -29.1586 -18.1128 12.5522
rtibia 107.693
rfoot -21.487 4.29076
rtoes 3.06326
lfemur 6.05703 1.80368 -24.2025
ltibia 7.50338
lfoot 9.30324 -4.82597
ltoes 0.431762
2363
root 28.9844 18.7912 10.5855 731.39 87.1394 377.424
lowerback 9.26738 0.805215 -2.40229
upperback 2.22599 0.972818 1.87713
thorax -2.95436 0.530686 3.18598
lowerneck -14.3278 -0.292254 -8.80255
upperneck 31.1665 2.21121 2.40535
head 12.6458 0.574788 2.84871
rclavicle -6.28657e-015 -7.95139e-016
rhumerus -40.9736 -3.44865 -77.7612
rradius 44.1673
rwrist -16.3984
rhand -21.2889 14.0627
rfingers 7.12502
rthumb 5.09544 -15.856
lclavicle -6.28657e-015 -7.95139e-016
lhumerus -41.2886 -0.691987 84.8556
lradius 40.7442
lwrist 3.36386
lhand -11.6273 16.5048
lfingers 7.12502
lthumb 14.4161 45.9841
rfemur -29.4894 -17.7015 13.2091
rtibia 105.928
rfoot -21.0525 3.08198
rtoes 1.11682
lfemur 6.327 1.94173 -24.215
ltibia 7.09667
lfoot 9.31727 -5.11732
ltoes 0.0750807
2364
root 29.0065 18.7807 10.5935 734.114 87.698 380.114
lowerback 9.4101 0.70718 -2.36091
upperback 2.24454 0.84544 1.86375
thorax -3.00396 0.468317 3.16288
lowerneck -14.2004 -0.332258 -8.53685
upperneck 30.7901 2.06601 2.29317
head 12.4763 0.531931 2.7247
rclavicle -4.22417e-016 5.1684e-015
rhumerus -40.7267 -2.65587 -77.9397
rradius 44.3202
rwrist -17.3109
rhand -20.9387 13.5936
rfingers 7.12502
rthumb 5.43357 -16.3167
lclavicle -4.22417e-016 5.1684e-015
lhumerus -41.0572 -0.932027 84.6686
lradius 41.0455
lwrist 2.72462
lhand -11.0149 16.9323
lfingers 7.12502
lthumb 15.0061 46.3685
rfemur -29.6496 -17.7549 13.5886
rtibia 104.047
rfoot -20.3119 2.35464
rtoes 1.59633
lfemur 6.35887 1.81349 -24.2082
ltibia 7.21625
lfoot 9.1688 -5.07957
ltoes 1.80122
2365
root 29.0329 18.7746 10.6078 732.055 88.269 378.078
lowerback 9.55742 0.593149 -2.18527
upperback 2.32258 0.715129 1.92309
thorax -2.99375 0.403315 3.14042
lowerneck -14.3639 -0.44328 -8.66756
upperneck 30.6827 1.86661 2.52129
head 12.4739 0.455026 2.80461
rclavicle 4.32357e-015 5.96354e-015
rhumerus -40.4766 -2.49574 -77.9277
rradius 44.5834
rwrist -17.4109
rhand -20.7626 13.2648
rfingers 7.12502
rthumb 5.60361 -16.6411
lclavicle 4.32357e-015 5.96354e-015
lhumerus -40.6956 -1.15804 84.5578
lradius 41.1763
lwrist 2.42821
lhand -11.2492 17.2151
lfingers 7.12502
lthumb 14.7805 46.6681
rfemur -29.6433 -17.6855 14.1247
rtibia 101.988
rfoot -19.0148 1.87504
rtoes 3.51671
lfemur 6.16677 1.71443 -23.9278
ltibia 7.93123
lfoot 8.716 -4.95588
ltoes 4.88384
2366
root 29.0624 18.7643 10.6314 731.157 88.6255 377.079
lowerback 9.54903 0.561795 -2.26449
upperback 2.36246 0.67178 2.02878
thorax -2.94651 0.382205 3.30092
lowerneck -14.5296 -0.581306 -9.02006
upperneck 30.6279 1.65799 2.8746
head 12.4928 0.36468 2.97123
rclavicle 5.04416e-015 1.31198e-014
rhumerus -40.2039 -2.56035 -77.7506
rradius 44.7421
rwrist -17.1184
rhand -21.2557 14.0524
rfingers 7.12502
rthumb 5.12749 -15.8656
lclavicle 5.04416e-015 1.31198e-014
lhumerus -40.4153 -1.62689 84.6922
lradius 41.3521
lwrist 2.6275
lhand -11.5055 17.3531
lfingers 7.12502
lthumb 14.5335 46.8241
rfemur -29.7641 -17.3284 14.6798
rtibia 99.8058
rfoot -18.1656 1.66587
rtoes 4.35591
lfemur 5.65652 1.80237 -23.7047
ltibia 8.97727
lfoot 7.97123 -5.19805
ltoes 5.17878
2367
root 29.0928 18.7461 10.6484 741.307 88.8869 386.989
lowerback 9.37665 0.521366 -2.57552
upperback 2.32506 0.590362 2.0708
thorax -2.88683 0.342167 3.53136
lowerneck -14.3955 -0.571837 -8.88629
upperneck 30.3313 1.64619 2.72136
head 12.3477 0.359622 2.87596
rclavicle -4.69629e-015 -2.14687e-014
rhumerus -39.9924 -2.37603 -77.627
rradius 44.8528
rwrist -16.7914
rhand -21.6478 14.5388
rfingers 7.12502
rthumb 4.74887 -15.388
lclavicle -4.69629e-015 -2.14687e-014
lhumerus -40.2633 -1.79735 84.6787
lradius 41.5956
lwrist 2.71199
lhand -11.6242 17.1747
lfingers 7.12502
lthumb 14.4191 46.6539
rfemur -30.0194 -16.9983 14.9785
rtibia 97.5654
rfoot -17.0361 1.37814
rtoes 7.46618
lfemur 4.96313 1.91983 -23.8203
ltibia 10.1183
lfoot 7.07205 -5.35242
ltoes 6.13064
2368
root 29.1202 18.7212 10.6626 754.379 89.204 399.828
lowerback 9.17686 0.420832 -2.72963
upperback 2.3596 0.44642 2.08592
thorax -2.72965 0.26803 3.65152
lowerneck -14.3468 -0.498525 -8.46677
upperneck 29.9599 1.72613 2.3132
head 12.1904 0.394001 2.64702
rclavicle 1.54058e-015 -1.03368e-014
rhumerus -39.5968 -2.24182 -77.5968
rradius 44.9241
rwrist -16.6417
rhand -21.414 14.4855
rfingers 7.12502
rthumb 4.97457 -15.4361
lclavicle 1.54058e-015 -1.03368e-014
lhumerus -39.8647 -1.57768 84.3829
lradius 41.7227
lwrist 2.38725
lhand -11.8 17.1256
lfingers 7.12502
lthumb 14.2497 46.6167
rfemur -30.1883 -16.8247 15.3425
rtibia 95.2696
rfoot -15.9317 1.11726
rtoes -4.05839
lfemur 4.35252 1.5896 -23.872
ltibia 11.0947
lfoot 6.20798 -4.99917
ltoes 8.6638
2369
root 29.1405 18.6903 10.6827 780.527 89.488 425.81
lowerback 9.16693 0.308923 -2.90296
upperback 2.38724 0.286069 2.16783
thorax -2.6827 0.188415 3.85387
lowerneck -14.5207 -0.506458 -8.35988
upperneck 29.8862 1.75703 2.10058
head 12.1999 0.390193 2.55183
rclavicle -1.2921e-015 1.39149e-014
rhumerus -39.103 -2.28491 -77.4436
rradius 44.8159
rwrist -16.2323
rhand -21.2149 15.0441
rfingers 7.12502
rthumb 5.16684 -14.8729
lclavicle -1.2921e-015 1.39149e-014
lhumerus -39.4118 -1.50256 84.1864
lradius 41.8752
lwrist 2.27505
lhand -11.9053 17.2743
lfingers 7.12502
lthumb 14.1483 46.7725
rfemur -30.2404 -16.6894 15.6974
rtibia 92.9569
rfoot -15.036 0.821904
rtoes -0.482317
lfemur 3.84301 1.82503 -23.776
ltibia 11.9422
lfoot 5.43207 -5.40159
ltoes 8.57159
2370
root 29.1606 18.6505 10.703 824.512 89.2888 469.667
lowerback 9.2721 0.260514 -3.32344
upperback 2.311 0.178671 2.18701
thorax -2.81089 0.14005 4.12608
lowerneck -14.6627 -0.609851 -8.49542
upperneck 30.0772 1.65372 2.16651
head 12.3125 0.333683 2.59273
rclavicle -9.93923e-016 -8.74653e-015
rhumerus -38.8217 -2.18984 -77.2921
rradius 44.6662
rwrist -15.9521
rhand -21.7605 15.422
rfingers 7.12502
rthumb 4.64 -14.5072
lclavicle -9.93923e-016 -8.74653e-015
lhumerus -39.1998 -1.6562 84.0604
lradius 42.1762
lwrist 2.48221
lhand -12.0124 17.3084
lfingers 7.12502
lthumb 14.045 46.8138
rfemur -30.1399 -16.5191 15.6662
rtibia 90.5968
rfoot -14.2848 0.506658
rtoes 2.35463
lfemur 3.34996 2.14508 -24.0129
ltibia 12.8567
lfoot 4.44785 -5.89298
ltoes 6.78892
2371
root 29.1859 18.6061 10.7206 842.08 88.8288 487.133
lowerback 9.30523 0.222578 -3.58216
upperback 2.26291 0.0949277 2.0372
thorax -2.87088 0.100574 4.12636
lowerneck -14.6251 -0.688152 -8.52817
upperneck 30.0366 1.46405 2.41227
head 12.2948 0.277735 2.66341
rclavicle 5.96354e-015 1.59028e-015
rhumerus -38.5018 -2.22755 -77.3269
rradius 44.5402
rwrist -16.1802
rhand -21.8358 14.9352
rfingers 7.12502
rthumb 4.5673 -14.9955
lclavicle 5.96354e-015 1.59028e-015
lhumerus -39.0166 -1.72767 83.7429
lradius 42.4204
lwrist 2.42194
lhand -12.3159 17.2762
lfingers 7.12502
lthumb 13.7526 46.8017
rfemur -29.838 -16.3403 15.4723
rtibia 88.1509
rfoot -13.8098 0.586722
rtoes 2.1216
lfemur 2.86271 2.37697 -24.3138
ltibia 13.8534
lfoot 3.39883 -6.35851
ltoes 5.96594
